<?xml version="1.0" standalone="no"?>
<!DOCTYPE svg PUBLIC "-//W3C//DTD SVG 20010904//EN"
 "http://www.w3.org/TR/2001/REC-SVG-20010904/DTD/svg10.dtd">
<svg version="1.0" xmlns="http://www.w3.org/2000/svg"
 width="474.000000pt" height="474.000000pt" viewBox="0 0 474.000000 474.000000"
 preserveAspectRatio="xMidYMid meet">

<g transform="translate(0.000000,474.000000) scale(0.100000,-0.100000)"
fill="#000000" stroke="none">
<path d="M1740 4105 c-189 -31 -383 -98 -525 -181 -332 -194 -587 -503 -703
-850 -99 -296 -106 -619 -21 -922 41 -145 132 -338 215 -452 l33 -46 -24 -181
c-14 -100 -29 -212 -35 -250 -10 -63 -10 -69 9 -84 18 -15 35 -12 254 49 l235
64 114 -55 c235 -115 393 -150 683 -153 l210 -2 55 -52 c62 -58 205 -157 289
-200 165 -83 344 -124 546 -124 164 -1 250 13 398 61 l108 36 190 -72 c104
-40 194 -69 201 -65 7 5 8 3 3 -5 -5 -9 1 -12 21 -9 l29 3 0 90 c0 50 -2 158
-5 240 -3 83 -2 159 1 170 3 11 4 14 2 6 -4 -12 -6 -12 -15 0 -6 10 -7 7 -3
-10 5 -16 4 -21 -4 -17 -6 4 -11 2 -11 -3 0 -6 -16 -11 -35 -11 -24 0 -35 5
-35 15 0 11 -11 15 -40 15 -29 0 -40 4 -40 15 0 12 -13 15 -55 15 l-55 0 0 40
c0 22 4 40 9 40 5 0 12 7 15 16 6 14 4 15 -10 3 -8 -7 -24 -13 -33 -14 -21 -2
-91 -53 -91 -67 0 -5 -3 -7 -8 -5 -4 3 -21 -6 -37 -19 -17 -13 -25 -24 -18
-24 6 0 15 5 18 10 9 14 22 12 22 -3 0 -9 -11 -13 -31 -12 -17 1 -62 -13 -103
-32 -196 -94 -456 -109 -662 -38 -87 29 -203 89 -228 118 -10 11 -12 17 -6 13
19 -11 196 85 298 162 200 150 422 402 353 402 -6 0 -7 -7 -4 -16 6 -17 -19
-54 -36 -54 -16 0 -8 18 11 23 12 3 19 13 18 28 0 13 3 32 8 43 7 16 6 17 -13
7 -11 -6 -34 -11 -51 -11 l-31 0 0 95 0 95 -40 0 -40 0 0 40 c0 38 2 40 31 40
17 0 28 4 24 10 -3 6 -21 10 -38 10 -18 0 -39 5 -47 10 -13 9 -13 11 0 20 8 5
28 10 43 10 16 0 35 7 43 15 14 13 13 15 -8 15 -13 0 -30 4 -38 9 -18 12 -36
1 -19 -11 11 -7 9 -8 -4 -4 -10 3 -23 6 -29 6 -6 0 -6 6 2 15 7 8 19 15 28 15
8 0 13 3 9 6 -8 8 -77 -15 -77 -27 0 -5 6 -9 13 -9 8 0 7 -3 -3 -10 -8 -5 -14
-24 -15 -42 0 -28 -3 -33 -28 -35 l-29 -2 26 34 c31 40 34 55 6 30 -11 -10
-20 -13 -20 -8 0 12 29 27 45 24 6 -1 4 4 -3 11 -11 11 -21 5 -59 -35 -28 -30
-43 -54 -40 -65 3 -9 8 -26 12 -37 4 -14 2 -13 -8 4 -18 30 -27 17 -34 -53 -6
-57 8 -116 35 -142 18 -18 25 -61 11 -69 -5 -4 -6 2 -2 12 3 10 -10 1 -31 -19
-167 -170 -410 -293 -666 -339 -97 -17 -310 -15 -410 4 -386 75 -709 318 -884
665 -234 465 -138 1042 236 1408 246 241 516 354 848 357 157 1 258 -13 390
-55 182 -58 350 -161 490 -300 46 -46 87 -82 92 -80 5 1 7 -2 4 -7 -4 -5 13
-38 37 -73 74 -106 101 -157 85 -162 -7 -2 -49 -7 -92 -10 -87 -7 -292 -52
-302 -67 -3 -5 -12 -9 -20 -9 -19 0 -195 -82 -214 -101 -22 -20 -140 -99 -148
-99 -4 0 -27 18 -51 40 -194 172 -497 108 -614 -130 -30 -60 -32 -72 -32 -170
0 -98 2 -110 32 -170 56 -114 151 -189 274 -217 134 -30 261 9 364 113 44 44
55 60 50 77 -4 13 -3 17 2 10 11 -15 87 83 77 99 -4 6 -3 8 3 5 11 -7 100 82
95 96 -1 5 2 5 8 2 7 -4 21 2 33 13 12 11 42 32 67 47 25 16 48 32 51 37 3 5
9 9 13 9 20 -3 26 0 20 11 -4 6 -3 8 4 5 15 -10 43 3 35 16 -3 6 -1 7 5 3 7
-4 26 0 44 8 37 17 143 46 170 46 21 0 24 16 6 23 -8 3 -6 6 5 6 9 1 17 -3 17
-9 0 -6 43 -10 113 -9 90 1 102 3 62 9 -28 4 -61 11 -74 15 -16 5 -21 4 -17
-4 5 -7 -7 -11 -36 -10 -24 1 -33 4 -20 6 18 4 22 11 22 44 0 28 4 39 15 39
10 0 15 11 15 35 0 20 5 35 11 35 14 0 -33 46 -53 52 -19 7 11 33 40 35 27 2
52 25 52 48 0 14 10 16 83 10 45 -3 106 -11 136 -17 30 -5 65 -11 78 -13 14
-1 29 -7 36 -14 6 -6 16 -11 22 -11 7 0 7 3 -1 8 -5 4 -18 30 -28 57 -24 66
-106 229 -117 233 -5 2 -9 8 -9 14 0 8 -85 134 -100 148 -3 3 -18 22 -33 43
-42 56 -98 107 -110 100 -6 -4 -7 -1 -2 6 4 8 -1 21 -14 32 -17 16 -25 18 -43
9 -21 -10 -21 -10 -5 3 16 14 14 17 -30 54 -72 58 -163 124 -163 118 0 -3 -9
3 -21 14 -31 29 -252 126 -350 155 -169 48 -229 57 -414 61 -126 3 -206 0
-265 -10z m1391 -548 c-10 -9 -11 -8 -5 6 3 10 9 15 12 12 3 -3 0 -11 -7 -18z
m54 -57 c14 -7 25 -17 25 -22 0 -5 -6 -6 -12 -2 -29 16 -48 38 -47 53 1 15 2
15 6 0 2 -9 15 -22 28 -29z m59 -77 l17 -28 -20 23 c-18 21 -20 21 -30 5 -12
-20 -14 -13 -5 11 9 23 19 20 38 -11z m-10 -29 c3 -8 2 -12 -4 -9 -6 3 -10 10
-10 16 0 14 7 11 14 -7z m-157 -290 c-3 -3 -12 -4 -19 -1 -8 3 -5 6 6 6 11 1
17 -2 13 -5z m-78 -8 c-10 -8 -89 -13 -83 -5 3 5 24 9 46 9 23 0 39 -2 37 -4z
m-122 -12 c-3 -3 -12 -4 -19 -1 -8 3 -5 6 6 6 11 1 17 -2 13 -5z m126 -11 c-7
-2 -21 -2 -30 0 -10 3 -4 5 12 5 17 0 24 -2 18 -5z m-117 -275 c-9 -5 -22 -7
-29 -4 -7 2 -4 5 6 5 10 1 15 5 12 11 -4 6 1 7 11 3 15 -6 15 -7 0 -15z m-53
-15 c-7 -2 -21 -2 -30 0 -10 3 -4 5 12 5 17 0 24 -2 18 -5z m-190 -58 c-3 -9
-8 -14 -10 -11 -3 3 -2 9 2 15 9 16 15 13 8 -4z m-138 -113 c-3 -3 -11 0 -18
7 -9 10 -8 11 6 5 10 -3 15 -9 12 -12z m355 -783 c0 -6 -4 -7 -10 -4 -5 3 -10
11 -10 16 0 6 5 7 10 4 6 -3 10 -11 10 -16z m290 -159 c0 -5 -4 -10 -10 -10
-5 0 -10 5 -10 10 0 6 5 10 10 10 6 0 10 -4 10 -10z m-8 -77 c-3 -10 -9 -10
-25 -1 -14 7 -17 13 -9 16 6 2 12 13 12 25 0 21 1 21 13 -3 8 -14 12 -31 9
-37z m15 35 c-3 -8 -6 -5 -6 6 -1 11 2 17 5 13 3 -3 4 -12 1 -19z m-77 -103
c0 -2 -6 -8 -13 -14 -10 -8 -14 -7 -14 2 0 8 6 14 14 14 7 0 13 -1 13 -2z
m587 -343 c-10 -10 -14 -22 -10 -26 4 -4 0 -4 -10 -1 -15 6 -14 9 6 26 28 24
35 24 14 1z m-72 -102 c3 -6 -1 -7 -9 -4 -18 7 -21 14 -7 14 6 0 13 -4 16 -10z"/>
<path d="M3090 3069 c-10 -6 0 -9 34 -9 54 0 57 4 11 13 -17 3 -37 2 -45 -4z"/>
<path d="M3290 2780 c34 -11 60 -11 35 0 -11 5 -29 8 -40 8 -16 0 -15 -2 5 -8z"/>
<path d="M3358 2763 c6 -2 18 -2 25 0 6 3 1 5 -13 5 -14 0 -19 -2 -12 -5z"/>
<path d="M3500 2700 c8 -5 20 -10 25 -10 6 0 3 5 -5 10 -8 5 -19 10 -25 10 -5
0 -3 -5 5 -10z"/>
<path d="M3068 2153 c6 -2 18 -2 25 0 6 3 1 5 -13 5 -14 0 -19 -2 -12 -5z"/>
<path d="M3144 2136 c21 -10 25 -15 15 -20 -8 -3 -1 -4 14 -1 21 4 27 2 21 -6
-4 -8 -3 -9 4 -5 7 4 12 3 12 -2 0 -5 7 -9 15 -9 8 0 12 4 10 8 -7 10 -93 49
-107 48 -7 0 0 -6 16 -13z"/>
<path d="M3200 2075 c0 -5 5 -17 10 -25 5 -8 10 -10 10 -5 0 6 -5 17 -10 25
-5 8 -10 11 -10 5z"/>
<path d="M3250 2075 c0 -3 9 -15 20 -27 10 -12 17 -26 13 -31 -4 -6 -1 -7 7
-2 9 5 11 0 8 -21 -3 -16 -3 -23 -1 -16 3 7 9 10 14 7 18 -12 9 13 -21 53 -28
39 -40 50 -40 37z"/>
<path d="M2936 2051 c-4 -7 -5 -15 -2 -18 9 -9 19 4 14 18 -4 11 -6 11 -12 0z"/>
<path d="M3319 1963 c-4 -56 -2 -110 4 -106 7 4 8 113 0 113 -1 0 -3 -3 -4 -7z"/>
<path d="M3281 1894 c0 -11 3 -14 6 -6 3 7 2 16 -1 19 -3 4 -6 -2 -5 -13z"/>
<path d="M3291 1834 c0 -11 3 -14 6 -6 3 7 2 16 -1 19 -3 4 -6 -2 -5 -13z"/>
<path d="M3237 1813 c-4 -3 -7 -15 -7 -26 0 -16 3 -17 15 -7 8 7 15 19 15 26
0 15 -12 19 -23 7z"/>
<path d="M3296 1784 c-3 -8 -9 -13 -14 -10 -4 2 -8 -4 -8 -15 0 -19 1 -18 18
3 17 22 23 38 14 38 -2 0 -7 -7 -10 -16z"/>
<path d="M3240 1730 c0 -5 5 -10 10 -10 6 0 10 5 10 10 0 6 -4 10 -10 10 -5 0
-10 -4 -10 -10z"/>
<path d="M3890 1485 c0 -5 5 -17 10 -25 5 -8 10 -10 10 -5 0 6 -5 17 -10 25
-5 8 -10 11 -10 5z"/>
<path d="M3848 1411 c-15 -28 -15 -30 0 -28 11 0 17 10 18 29 1 15 1 28 0 28
-1 0 -8 -13 -18 -29z"/>
<path d="M3779 1313 c-47 -53 -54 -69 -10 -23 26 27 41 37 37 25 -6 -16 -5
-18 5 -7 9 8 10 15 3 22 -7 7 -18 1 -35 -17z"/>
<path d="M4075 1219 c-4 -6 -5 -12 -2 -15 2 -3 7 2 10 11 7 17 1 20 -8 4z"/>
<path d="M4052 1168 c-7 -7 -12 -19 -12 -27 1 -12 4 -11 12 4 6 11 16 23 22
27 7 5 8 8 1 8 -6 0 -16 -5 -23 -12z"/>
</g>
</svg>
